<svg xmlns="http://www.w3.org/2000/svg" viewBox="0 0 1024 1024">
  <defs>
    <linearGradient id="bg" x1="0" y1="0" x2="0" y2="1">
      <stop offset="0" stop-color="#3AA0FF"/>
      <stop offset="1" stop-color="#0A60D2"/>
    </linearGradient>
    <linearGradient id="steel" x1="0" y1="0" x2="0" y2="1">
      <stop offset="0" stop-color="#FFFFFF"/>
      <stop offset="1" stop-color="#E6F0FF"/>
    </linearGradient>
    <filter id="sh" x="-20%" y="-20%" width="140%" height="140%">
      <feDropShadow dx="0" dy="10" stdDeviation="16" flood-color="#063A86" flood-opacity="0.35"/>
    </filter>
  </defs>

  <rect x="64" y="64" width="896" height="896" rx="212" fill="url(#bg)"/>
  <rect x="64" y="64" width="896" height="448" rx="212" fill="#FFFFFF" opacity="0.07"/>

  <g transform="rotate(-30 512 512)" filter="url(#sh)">
    <rect x="170" y="430" width="684" height="168" rx="28" fill="url(#steel)"/>
    <rect x="206" y="430" width="12" height="66" rx="5" fill="#0A63D6"/><rect x="250" y="430" width="12" height="38" rx="5" fill="#0A63D6"/><rect x="294" y="430" width="12" height="66" rx="5" fill="#0A63D6"/><rect x="338" y="430" width="12" height="38" rx="5" fill="#0A63D6"/><rect x="382" y="430" width="12" height="66" rx="5" fill="#0A63D6"/><rect x="426" y="430" width="12" height="38" rx="5" fill="#0A63D6"/><rect x="470" y="430" width="12" height="66" rx="5" fill="#0A63D6"/><rect x="514" y="430" width="12" height="38" rx="5" fill="#0A63D6"/><rect x="558" y="430" width="12" height="66" rx="5" fill="#0A63D6"/><rect x="602" y="430" width="12" height="38" rx="5" fill="#0A63D6"/><rect x="646" y="430" width="12" height="66" rx="5" fill="#0A63D6"/><rect x="690" y="430" width="12" height="38" rx="5" fill="#0A63D6"/><rect x="734" y="430" width="12" height="66" rx="5" fill="#0A63D6"/><rect x="778" y="430" width="12" height="38" rx="5" fill="#0A63D6"/>
    <!-- dimension arrows hinting "measure to scale" -->
    <g stroke="#0A63D6" stroke-width="10" stroke-linecap="round" fill="none" opacity="0.9">
      <line x1="206" y1="540" x2="818" y2="540"/>
    </g>
    <polygon points="206,540 236,524 236,556" fill="#0A63D6"/>
    <polygon points="818,540 788,524 788,556" fill="#0A63D6"/>
  </g>
</svg>